<?xml version="1.0" encoding="UTF-8"?>
<svg width="157px" height="30px" viewBox="0 0 157 30" version="1.1" xmlns="http://www.w3.org/2000/svg" xmlns:xlink="http://www.w3.org/1999/xlink">
    <!-- Generator: Sketch 42 (36781) - http://www.bohemiancoding.com/sketch -->
    <title>light copy 2</title>
    <desc>Created with Sketch.</desc>
    <defs></defs>
    <g id="Page-2" stroke="none" stroke-width="1" fill="none" fill-rule="evenodd">
        <g id="light-copy-2" fill-rule="nonzero">
            <path d="M46.5402985,13.1865672 L46.5402985,21.8104478 C46.5402985,23.8164179 46.5402985,24.738806 48.2238806,24.738806 C49.3477612,24.738806 51.2686567,24.658209 51.2686567,24.658209 L51.5104478,28.9477612 C50.1657201,29.255276 48.7987673,29.4559022 47.4223881,29.5477612 C42.5731343,29.5477612 41.1537313,27.7029851 41.1537313,21.9358209 L41.1537313,13.1865672 L38.7895522,13.1865672 L38.7895522,8.61492537 L41.1895522,8.61492537 L41.1895522,3.60447761 L46.5626866,0.43880597 L46.5626866,8.60597015 L51.4880597,8.60597015 L51.4880597,13.1865672 L46.5402985,13.1865672 Z" id="Shape" fill="#FFFFFF"></path>
            <path d="M70.8761194,24.4522388 L70.9567164,28.419403 C70.9567164,28.419403 66.3447761,29.5432836 62.619403,29.5432836 C56.5656716,29.5432836 54,26.538806 54,19.3208955 C54,12.1835821 57.0044776,8.53880597 62.861194,8.53880597 C68.7179104,8.53880597 71.6014925,11.6283582 71.6014925,17.6014925 C71.6489284,18.8577462 71.5131757,20.1142125 71.1985075,21.3313433 L59.4089552,21.3313433 C59.4492537,23.7358209 60.5731343,24.819403 63.438806,24.819403 C66.7253731,24.819403 70.8537313,24.4567164 70.8537313,24.4567164 L70.8761194,24.4522388 Z M66.2820896,17.238806 C66.2820896,13.9925373 65.3597015,12.9492537 62.8343284,12.9492537 C60.3089552,12.9492537 59.3865672,14.1940299 59.3462687,17.238806 L66.2820896,17.238806 Z" id="Shape" fill="#FFFFFF"></path>
            <path d="M75.4074627,29.5477612 L75.4074627,8.61940299 L80.7402985,8.61940299 L80.7402985,10.2223881 C80.7402985,10.2223881 83.4671642,8.61940299 85.7507463,8.61940299 C91.3656716,8.61940299 92.8074627,12.1477612 92.8074627,18.2820896 L92.8074627,29.5477612 L87.4343284,29.5477612 L87.4343284,18.4432836 C87.4343284,15.3940299 87.0358209,13.4328358 84.4298507,13.4328358 C83.1812065,13.4631198 81.9469618,13.7069399 80.780597,14.1537313 L80.780597,29.5477612 L75.4074627,29.5477612 Z" id="Shape" fill="#FFFFFF"></path>
            <path d="M101.829851,29.5477612 L98.8208955,29.5477612 L98.8208955,11.2164179 L96.2955224,11.2164179 L96.2955224,8.61044776 L98.8208955,8.61044776 L98.8208955,7.77761194 C98.8208955,2.00597015 100.302985,0.43880597 104.234328,0.43880597 C105.577612,0.43880597 108.264179,0.720895522 108.264179,0.720895522 L108.223881,3.20597015 C108.223881,3.20597015 105.985075,3.12537313 104.776119,3.12537313 C102.537313,3.12537313 101.81194,4.0880597 101.81194,7.81791045 L101.81194,8.61044776 L107.632836,8.61044776 L107.632836,11.2164179 L101.81194,11.2164179 L101.829851,29.5477612 Z" id="Shape" fill="#FFFFFF"></path>
            <path d="M127.159701,18.8820896 C127.159701,26.180597 125.368657,29.5477612 118.580597,29.5477612 C111.792537,29.5477612 110.001493,26.180597 110.001493,18.8820896 C110.001493,11.9865672 112.240299,8.7 118.580597,8.7 C124.920896,8.7 127.159701,11.9865672 127.159701,18.8820896 M124.070149,18.8820896 C124.070149,13.3074627 122.865672,11.3059701 118.576119,11.3059701 C114.286567,11.3059701 113.08209,13.3119403 113.08209,18.8820896 C113.08209,24.5731343 113.843284,26.941791 118.576119,26.941791 C123.308955,26.941791 124.070149,24.5776119 124.070149,18.8820896" id="Shape" fill="#FFFFFF"></path>
            <rect id="Rectangle-path" fill="#FFFFFF" x="132.3" y="0.447761194" width="3.00447761" height="29.1"></rect>
            <path d="M156.71194,29.5477612 L153.743284,29.5477612 L153.743284,27.7835821 C153.743284,27.7835821 150.658209,29.5477612 147.649254,29.5477612 C143.722388,29.5477612 140.431343,27.9447761 140.431343,19.2850746 C140.431343,12.2283582 142.714925,8.7 148.808955,8.7 C150.461303,8.75152107 152.10758,8.92512854 153.734328,9.21940299 L153.734328,0.447761194 L156.71194,0.447761194 L156.71194,29.5477612 Z M153.743284,25.3791045 L153.743284,11.7850746 C152.166957,11.5135722 150.573459,11.3534743 148.974627,11.3059701 C144.765672,11.3059701 143.520896,14.0731343 143.520896,19.2850746 C143.520896,25.7820896 145.643284,26.861194 147.998507,26.861194 C150.846269,26.861194 153.729851,25.3791045 153.729851,25.3791045 L153.743284,25.3791045 Z" id="Shape" fill="#FFFFFF"></path>
            <g id="logo/light" transform="translate(0.000000, 0.447761)">
                <path d="M7.56268657,3.83731343 C7.5626851,5.92387201 5.87163127,7.61559186 3.78507286,7.61641496 C1.69851444,7.61723806 0.00612645274,5.9268529 0.00447879018,3.84029497 C0.00283112763,1.75373704 1.69254736,0.060681181 3.77910448,0.0582089552 C5.8669718,0.0582074932 7.56021572,1.74944758 7.56268657,3.83731343" id="Shape" fill="#00A1E0"></path>
                <path d="M18.3537313,3.83731343 C18.3537299,5.92387201 16.662676,7.61559186 14.5761176,7.61641496 C12.4895592,7.61723806 10.7971712,5.9268529 10.7955236,3.84029497 C10.7938759,1.75373704 12.4835921,0.060681181 14.5701493,0.0582089552 C16.6580166,0.0582074932 18.3512605,1.74944758 18.3537313,3.83731343" id="Shape" fill="#00A1E0"></path>
                <path d="M29.1,3.83731343 C29.0999985,5.92387201 27.4089447,7.61559186 25.3223863,7.61641496 C23.2358279,7.61723806 21.5434399,5.9268529 21.5417922,3.84029497 C21.5401446,1.75373704 23.2298608,0.060681181 25.3164179,0.0582089552 C27.4042852,0.0582074932 29.0975292,1.74944758 29.1,3.83731343" id="Shape" fill="#FFFFFF"></path>
                <path d="M7.56268657,14.641791 C7.5626851,16.7283496 5.87163127,18.4200695 3.78507286,18.4208926 C1.69851444,18.4217157 0.00612645274,16.7313305 0.00447879018,14.6447726 C0.00283112763,12.5582147 1.69254736,10.8651588 3.77910448,10.8626866 C5.8669718,10.8626851 7.56021572,12.5539252 7.56268657,14.641791" id="Shape" fill="#00A1E0"></path>
                <path d="M18.3537313,14.641791 C18.3537299,16.7283496 16.662676,18.4200695 14.5761176,18.4208926 C12.4895592,18.4217157 10.7971712,16.7313305 10.7955236,14.6447726 C10.7938759,12.5582147 12.4835921,10.8651588 14.5701493,10.8626866 C16.6580166,10.8626851 18.3512605,12.5539252 18.3537313,14.641791" id="Shape" fill="#FFFFFF"></path>
                <path d="M29.1,14.641791 C29.0999985,16.7283496 27.4089447,18.4200695 25.3223863,18.4208926 C23.2358279,18.4217157 21.5434399,16.7313305 21.5417922,14.6447726 C21.5401446,12.5582147 23.2298608,10.8651588 25.3164179,10.8626866 C27.4042852,10.8626851 29.0975292,12.5539252 29.1,14.641791" id="Shape" fill="#FFFFFF"></path>
                <path d="M7.56268657,25.3746269 C7.56021357,27.4606008 5.86806659,29.1500751 3.78209132,29.1492508 C1.69611605,29.1484264 0.00530489655,27.4576153 0.00448056279,25.37164 C0.00365622902,23.2856648 1.69313051,21.5935178 3.77910448,21.5910448 C5.86871917,21.5910448 7.56268657,23.2850122 7.56268657,25.3746269" id="Shape" fill="#FFFFFF"></path>
                <path d="M18.3537313,25.3746269 C18.3512583,27.4606008 16.6591114,29.1500751 14.5731361,29.1492508 C12.4871608,29.1484264 10.7963497,27.4576153 10.7955253,25.37164 C10.794701,23.2856648 12.4841753,21.5935178 14.5701493,21.5910448 C16.6597639,21.5910448 18.3537313,23.2850122 18.3537313,25.3746269" id="Shape" fill="#FFFFFF"></path>
                <path d="M29.1,25.3746269 C29.097527,27.4606008 27.40538,29.1500751 25.3194048,29.1492508 C23.2334295,29.1484264 21.5426183,27.4576153 21.541794,25.37164 C21.5409697,23.2856648 23.2304439,21.5935178 25.3164179,21.5910448 C27.4060326,21.5910448 29.1,23.2850122 29.1,25.3746269" id="Shape" fill="#00A1E0"></path>
                <polygon id="Shape" fill="#FFFFFF" points="16.0567164 26.8477612 3.78358209 26.8477612 3.78358209 23.9014925 13.1149254 23.9014925 13.1149254 13.1731343 23.8477612 13.1731343 23.8477612 3.83731343 26.7895522 3.83731343 26.7895522 16.1149254 16.0567164 16.1149254"></polygon>
            </g>
        </g>
    </g>
</svg>